<?xml version="1.0" encoding="UTF-8"?>
<svg id="Layer_2" data-name="Layer 2" xmlns="http://www.w3.org/2000/svg" viewBox="0 0 88.49 82.91">
  <defs>
    <style>
      .cls-1 {
        stroke-width: 0px;
      }
    </style>
  </defs>
  <g id="Layer_1-2" data-name="Layer 1">
    <g>
      <path class="cls-1" d="m39.34.06v39.34l-7.02-5.4L7.02,14.5v24.9H0V.17l7.02,5.4,25.29,19.5V0l7.02.06Z"/>
      <path class="cls-1" d="m51.98,10.62v3.65h25.29v7.03h-25.29v7.42c0,1.97,1.63,3.6,3.6,3.6h28.72v7.02h-28.72c-5.84,0-10.57-4.78-10.57-10.62V10.62c0-5.84,4.72-10.62,10.57-10.62h28.72v7.02h-28.72c-1.97,0-3.6,1.63-3.6,3.6Z"/>
      <path class="cls-1" d="m41.34,69.38c0,6.91-5.62,12.53-12.53,12.53H2v-39.34h24.78c5.84,0,10.62,4.78,10.62,10.62,0,2.14-.62,4.1-1.69,5.73,3.37,2.25,5.62,6.07,5.62,10.45Zm-32.31-12.59h17.82c1.97,0,3.6-1.63,3.6-3.6s-1.63-3.6-3.6-3.6H9.02v7.19Zm19.78,18.04c3.03,0,5.51-2.47,5.51-5.51s-2.47-5.51-5.51-5.51H9.02v11.07h19.78v-.06Z"/>
      <path class="cls-1" d="m88.49,82.91h-7.87l-3.6-7.02-8.6-16.86-8.6,16.86-3.6,7.02h-7.87l3.6-7.02,16.47-32.31,16.47,32.31,3.6,7.02Z"/>
    </g>
  </g>
</svg>