<?xml version="1.0" encoding="utf-8"?>
<!-- Generator: Adobe Illustrator 28.0.0, SVG Export Plug-In . SVG Version: 6.00 Build 0)  -->
<svg version="1.1" id="Layer_1" xmlns="http://www.w3.org/2000/svg" xmlns:xlink="http://www.w3.org/1999/xlink" x="0px" y="0px"
	 viewBox="0 0 100 100" style="enable-background:new 0 0 100 100;" xml:space="preserve">
<style type="text/css">
	.st0{fill:#FFFFFF;}
</style>
<g id="XMLID_00000150104827207305285630000004404064888103346855_">
	<path id="XMLID_00000048464453189736706120000004139377915874931603_" class="st0" d="M46.9,23.5v25.2l-4.5-3.5L26.2,32.7v15.9
		h-4.5V23.6l4.5,3.5l16.2,12.5v-16L46.9,23.5z"/>
	<path id="XMLID_00000024681688263947733430000000049337407484932502_" class="st0" d="M55,30.3v2.3h16.2v4.5H55v4.7
		c0,1.3,1,2.3,2.3,2.3h18.4v4.5H57.3c-3.7,0-6.8-3.1-6.8-6.8V30.3c0-3.7,3-6.8,6.8-6.8h18.4V28H57.3C56,28,55,29,55,30.3z"/>
	<path id="XMLID_00000152977972787287646180000013227677484613848195_" class="st0" d="M48.1,67.9c0,4.4-3.6,8-8,8H23V50.7h15.9
		c3.7,0,6.8,3.1,6.8,6.8c0,1.4-0.4,2.6-1.1,3.7C46.7,62.6,48.1,65.1,48.1,67.9z M27.5,59.8h11.4c1.3,0,2.3-1,2.3-2.3
		c0-1.3-1-2.3-2.3-2.3H27.5V59.8z M40.1,71.4c1.9,0,3.5-1.6,3.5-3.5c0-1.9-1.6-3.5-3.5-3.5H27.5v7.1L40.1,71.4L40.1,71.4z"/>
	<path id="XMLID_00000005974904751628898520000009475724662116319111_" class="st0" d="M78.3,76.5h-5L71,72l-5.5-10.8L60,72
		l-2.3,4.5h-5l2.3-4.5l10.5-20.7L76,72L78.3,76.5z"/>
</g>
</svg>
